<svg width="439" height="442" viewBox="0 0 439 442" fill="none" xmlns="http://www.w3.org/2000/svg">
<path d="M358.063 288.779C357.29 289.568 356.421 290.257 355.477 290.83C354.191 291.601 352.583 292.841 353.146 294.182C353.321 294.517 353.567 294.811 353.867 295.042C354.166 295.274 354.512 295.438 354.881 295.523C359.302 296.977 361.579 293.666 365.498 293.713C368.693 293.713 370.93 297.125 374.065 297.802C382.68 299.679 394.094 297.239 402.909 296.897C403.74 296.897 404.751 296.723 405.086 295.952C405.501 295 404.523 294.061 403.659 293.478L384.234 280.359C383.634 279.841 382.93 279.459 382.169 279.239C381.408 279.02 380.609 278.967 379.826 279.085C375.807 279.313 370.12 278.281 366.543 279.863C362.966 281.445 360.755 286.084 358.049 288.779" fill="#FA5C57"/>
<path d="M139.329 94.5231L318.18 4.69238L351.886 130.12L169.7 139.774L139.329 94.5231Z" fill="#FFE900"/>
<path d="M407.504 65.0602C407.504 100.993 384.408 130.053 348.504 130.053C312.6 130.053 277.5 100.993 277.5 65.0602C277.5 47.8052 284.349 31.2569 296.54 19.0557C308.732 6.85455 325.267 0 342.509 0C359.75 0 376.285 6.85455 388.477 19.0557C400.669 31.2569 407.518 47.8052 407.518 65.0602" fill="#FFE900"/>
<path d="M200.111 205.678C197.028 205.676 194.05 204.554 191.732 202.521C163.819 178.012 153.376 168.848 136.274 138.278C135.352 136.816 134.737 135.182 134.467 133.474C134.196 131.766 134.276 130.021 134.701 128.345C135.126 126.669 135.888 125.097 136.94 123.726C137.991 122.354 139.311 121.211 140.819 120.366C142.326 119.521 143.99 118.992 145.708 118.812C147.426 118.631 149.163 118.803 150.813 119.316C152.463 119.829 153.991 120.673 155.305 121.796C156.618 122.919 157.69 124.299 158.453 125.85C171.381 148.951 179.219 157.431 198.464 174.546C209.107 160.991 218.211 148.461 224.199 132.473C225.498 129.477 227.897 127.095 230.9 125.818C233.904 124.542 237.283 124.469 240.339 125.614C243.395 126.76 245.894 129.036 247.321 131.973C248.748 134.91 248.993 138.283 248.006 141.396C239.767 163.404 227.14 179.332 213.77 196.199C212.551 197.728 211.331 199.269 210.092 200.838C209.025 202.195 207.692 203.319 206.175 204.142C204.658 204.966 202.989 205.47 201.27 205.625C200.888 205.658 200.5 205.678 200.111 205.678Z" fill="#FA5C57"/>
<path d="M248.89 133.646C248.314 136.327 247.597 139.009 246.827 141.61C246.458 142.917 246.036 144.211 245.641 145.518L244.368 149.386C242.633 154.535 240.718 159.59 238.668 164.591C236.618 169.592 234.468 174.546 232.177 179.44C231.038 181.884 229.868 184.318 228.667 186.74L226.852 190.387C226.698 190.688 226.564 190.997 226.383 191.285C226.114 191.62 225.729 191.84 225.304 191.902C224.589 192.068 223.85 192.109 223.121 192.023C222.873 192.023 222.699 192.023 222.39 191.969L221.546 191.862C221.265 191.828 220.877 191.748 220.568 191.694C220.26 191.64 219.798 191.533 219.416 191.453C214.02 190.287 208.939 187.971 204.519 184.662C204.211 184.427 203.849 184.166 203.581 183.958C203.313 183.75 203.025 183.515 202.811 183.328L202.174 182.758C201.94 182.563 201.833 182.416 201.658 182.248C201.119 181.75 200.666 181.166 200.319 180.519C200.091 180.156 200.003 179.722 200.071 179.299C200.178 178.97 200.325 178.669 200.446 178.354L201.987 174.606C203.027 172.112 204.092 169.63 205.182 167.158C207.366 162.215 209.674 157.333 212.108 152.51C214.542 147.688 217.112 142.924 219.818 138.218L221.901 134.719C222.625 133.566 223.328 132.399 224.072 131.253C225.539 128.96 227.059 126.681 228.72 124.475C230.275 122.41 232.487 120.938 234.991 120.301C237.495 119.663 240.141 119.9 242.492 120.971C244.844 122.042 246.76 123.884 247.924 126.192C249.088 128.5 249.431 131.137 248.896 133.666" fill="black"/>
<path d="M222.391 238.118C221.473 236.637 221.098 234.525 221.48 231.501C223.704 214.025 225.874 196.561 228.701 179.212C230.208 169.914 231.621 160.602 233.162 151.311C233.939 146.665 234.736 142.019 235.6 137.387C236.082 134.813 237.509 129.711 235.6 127.432C234.997 126.715 234.073 126.306 233.55 125.528C232.787 124.415 233.102 122.813 233.952 121.76C234.879 120.764 236.043 120.019 237.335 119.595C240.309 118.505 243.361 117.64 246.465 117.007C260.016 113.897 273.5 113.582 287.326 115.412C295.954 116.552 310.141 118.053 315.982 125.608C319.023 129.55 317.664 138.346 317.51 142.871C317.148 153.597 316.083 164.323 314.937 174.995C313.484 188.537 311.756 202.045 309.913 215.533C309.154 221.057 308.379 226.579 307.589 232.098L306.665 238.507C306.202 241.738 306.216 243.253 302.418 243.93C294.982 245.271 287.246 244.721 279.69 244.869C271.317 245.036 262.943 244.145 254.53 243.669C249.533 243.381 244.991 242.08 240.021 241.658C235.051 241.235 225.606 243.347 222.391 238.118Z" fill="black"/>
<path d="M259.527 115.552C261.945 112.549 263.419 113.025 266.815 111.986C273.051 110.089 267.606 107.595 266.025 103.271C264.075 97.9081 261.55 88.9184 262.441 83.1062C263.673 75.0453 266.95 67.4354 271.96 61.0038C275.878 55.9961 281.096 51.6185 287.366 50.4252C293.636 49.2319 300.857 51.8799 303.49 57.672C306.839 65.0797 301.869 74.2371 299.819 81.4369C295.84 95.354 294.634 110.163 289.181 123.51C284.034 136.133 276.134 147.445 266.058 156.62C263.928 158.551 261.63 160.421 258.897 161.313C256.164 162.204 252.869 161.929 250.799 159.972C244.214 153.737 248.877 139.86 251.549 132.949C252.762 129.791 254.041 126.661 255.347 123.564C256.493 120.842 257.665 117.926 259.534 115.606" fill="#FA5C57"/>
<path d="M105.743 423.438C105.242 422.389 104.676 421.373 104.048 420.394C103.404 419.252 102.483 418.29 101.369 417.599C97.4903 415.534 81.2732 423.364 76.4837 425.254C73.2417 426.528 56.3882 434.452 56.3882 434.452L57.6877 434.72C69.1891 437.073 80.7842 439.165 92.4463 440.599C98.475 441.337 104.812 442.202 110.894 441.551C114.109 441.209 116.708 440.512 117.686 437.127C120.098 428.767 111.946 431.817 108.422 428.191C107.21 426.951 106.6 425.261 105.87 423.692L105.75 423.438" fill="black"/>
<path d="M438.157 294.839H0V300.188H438.157V294.839Z" fill="black"/>
<path d="M270.62 295.637L141.178 271.745L167.222 255.28C166.614 262.878 165.884 270.444 165.031 277.979C164.623 281.753 164.16 285.508 163.692 289.275L162.271 300.537C160.32 315.536 158.15 330.479 155.761 345.366C154.615 352.814 153.336 360.235 152.103 367.669C150.871 375.104 149.544 382.505 148.185 389.906C146.825 397.307 145.505 404.708 144.045 412.075L141.908 423.15C141.76 424.078 141.536 424.993 141.238 425.885C140.885 426.809 140.36 427.658 139.691 428.385C139.315 428.793 138.907 429.169 138.472 429.512C138.229 429.7 137.976 429.874 137.715 430.035C137.448 430.221 137.171 430.391 136.884 430.544C135.441 431.336 133.884 431.899 132.269 432.213C107.484 437.355 82.7534 429.733 65.1363 414.207C63.8939 413.128 62.8271 411.861 61.9746 410.453C61.8011 410.175 61.6423 409.889 61.499 409.595C61.3516 409.313 61.2244 409.038 61.1105 408.763C60.9056 408.248 60.7421 407.716 60.6215 407.175C60.4024 406.211 60.3683 405.215 60.521 404.238C60.7234 403.325 60.9966 402.428 61.3382 401.557L65.0224 390.898C67.4473 383.792 69.9994 376.713 72.5114 369.62C75.0233 362.527 77.6424 355.475 80.2281 348.403C82.8137 341.33 85.473 334.291 88.206 327.259C93.5916 313.181 99.1737 299.154 104.952 285.179L109.347 274.714C110.847 271.235 112.327 267.749 113.855 264.283C116.878 257.329 120.026 250.402 123.3 243.502L125.269 239.345C127.377 234.928 130.882 231.33 135.24 229.109C139.599 226.887 144.567 226.166 149.377 227.057L278.785 250.916C284.711 252 289.964 255.395 293.388 260.354C296.813 265.314 298.128 271.432 297.046 277.362C295.963 283.293 292.57 288.55 287.615 291.977C282.659 295.404 276.546 296.721 270.62 295.637" fill="#A6172B"/>
<path d="M285.169 222.143C274.183 218.362 262.782 215.332 251.609 214.488C250.323 214.394 248.93 214.347 247.858 215.078C246.907 215.748 246.425 216.867 245.989 217.94C240.55 231.441 227.414 245.633 215.94 254.268C201.625 265.041 183.539 269.211 167.375 276.866C192.91 286.553 221.68 295.972 249.184 295.972H292.102C293.823 295.972 296.248 296.421 297.916 295.972C302.17 294.826 303.536 290.033 304.293 285.876C307.572 267.766 308.51 249.309 307.086 230.959C299.718 228.277 292.671 224.718 285.169 222.137" fill="#A6172B"/>
<path d="M323.357 135.812C325.843 141.745 328.448 147.738 331.027 153.684C333.606 159.63 336.265 165.583 338.891 171.456C341.517 177.328 344.25 183.201 347.017 188.933C348.405 191.797 349.819 194.613 351.257 197.38C352.684 200.128 354.13 202.843 355.39 205.357C355.885 206.356 357.004 208.394 357.748 209.956C358.491 211.518 359.282 213.187 359.998 214.776C361.412 217.94 362.718 221.057 364.017 224.161C366.523 230.396 368.907 236.577 371.171 242.798C373.436 249.019 375.626 255.233 377.796 261.448C379.967 267.662 382.036 273.903 384.046 280.218C384.737 282.386 384.578 284.736 383.6 286.791C382.622 288.845 380.9 290.451 378.782 291.28C376.665 292.11 374.311 292.101 372.2 291.257C370.088 290.413 368.377 288.796 367.414 286.734V286.734L359.134 269.056C356.379 263.157 353.595 257.287 350.781 251.446C347.948 245.62 345.141 239.794 342.22 234.123C340.774 231.287 339.313 228.472 337.833 225.777C337.089 224.436 336.339 223.095 335.596 221.868L335.046 220.943L334.497 220.085C334.202 219.629 333.633 218.691 333.157 217.913C331.349 214.861 329.735 211.697 328.328 208.441C326.928 205.303 325.608 202.186 324.309 199.055C321.763 192.834 319.372 186.633 317.047 180.426C314.723 174.218 312.513 167.99 310.349 161.762C308.185 155.534 306.089 149.3 304.012 142.992C303.16 140.455 303.326 137.686 304.473 135.269C305.621 132.851 307.661 130.974 310.164 130.032C312.667 129.09 315.438 129.157 317.893 130.219C320.347 131.281 322.294 133.255 323.324 135.725L323.357 135.812Z" fill="#FA5C57"/>
<path d="M320.075 128.793C321.918 130.835 323.642 132.982 325.24 135.222C326.827 137.421 328.348 139.646 329.774 141.926C332.635 146.444 335.214 151.083 337.605 155.789C339.996 160.495 342.16 165.295 344.15 170.162C345.15 172.593 346.103 175.051 347.01 177.536C347.479 178.763 347.907 180.01 348.349 181.25C348.45 181.565 348.591 181.86 348.664 182.189C348.679 182.392 348.632 182.595 348.53 182.772C348.391 183.044 348.212 183.295 348.001 183.516C347.86 183.657 347.767 183.784 347.593 183.938L347.07 184.414L346.4 184.937L345.57 185.534L345.154 185.836L344.947 185.983L344.652 186.164L343.473 186.908L342.287 187.646C342.12 187.753 341.825 187.92 341.557 188.068L340.753 188.524C335.968 191.191 330.86 193.232 325.554 194.597L324.657 194.825C324.355 194.899 324.034 194.986 323.833 195.02L322.493 195.301L321.153 195.583L320.819 195.65H320.571L320.062 195.724L319.05 195.864L318.22 195.931H317.55C317.353 195.943 317.157 195.943 316.96 195.931C316.654 195.923 316.351 195.867 316.063 195.764C315.868 195.7 315.694 195.584 315.56 195.429C315.393 195.147 315.286 194.832 315.145 194.537C314.616 193.33 314.066 192.137 313.557 190.924C312.521 188.501 311.525 186.066 310.57 183.617C308.663 178.7 306.946 173.724 305.419 168.687C303.911 163.626 302.585 158.491 301.554 153.269C301.024 150.647 300.596 147.986 300.214 145.298C299.833 142.573 299.609 139.829 299.544 137.079C299.499 134.671 300.188 132.306 301.519 130.3C302.85 128.293 304.76 126.739 306.995 125.846C309.229 124.952 311.683 124.76 314.029 125.297C316.375 125.833 318.503 127.071 320.129 128.847" fill="black"/>
<path d="M173.11 132.99C172.708 132.085 160.61 96.4608 160.61 96.4608C160.491 96.037 160.243 95.6605 159.901 95.3833C159.56 95.106 159.14 94.9414 158.701 94.9122C158.701 94.9122 139.463 94.6106 139.135 94.6173C137.159 94.6575 136.114 96.0653 135.35 97.0977L135.31 97.2049C134.756 97.8522 134.347 98.6113 134.111 99.4306C133.885 100.506 134.012 101.625 134.473 102.622C134.587 102.917 147.93 135.886 147.93 135.886C148.15 136.504 148.529 137.054 149.028 137.479C149.528 137.904 150.132 138.189 150.777 138.306L157.408 139.298L160.932 139.828C161.568 139.921 163.685 140.223 165.775 140.451C166.9 140.572 167.818 140.652 168.515 140.686C168.872 140.705 169.229 140.705 169.586 140.686C170.079 140.701 170.565 140.573 170.986 140.317C171.404 140.033 171.767 139.677 172.058 139.265C172.745 138.48 173.251 137.553 173.539 136.549C173.808 135.351 173.664 134.096 173.13 132.99" fill="black"/>
<path d="M168.461 133.707L157.134 101.495C157.042 101.169 156.855 100.878 156.595 100.66C156.336 100.443 156.017 100.308 155.68 100.275L137.849 99.6516L137.896 98.3779L155.727 98.9947C156.32 99.0376 156.886 99.259 157.351 99.6299C157.816 100.001 158.159 100.504 158.333 101.073L169.66 133.285L168.461 133.707Z" fill="white"/>
<path d="M171.516 130.207C171.77 129.916 171.926 129.551 171.96 129.165C171.993 128.78 171.904 128.393 171.703 128.062C171.167 126.808 170.477 125.434 169.118 124.931C167.356 124.261 165.608 125.474 164.429 126.272C161.629 128.183 158.628 128.545 155.453 128.954C154.455 129.074 153.443 129.202 152.371 129.376H152.284C151.032 129.59 147.22 130.227 146.088 129.081C145.948 128.927 145.85 128.739 145.805 128.535C145.761 128.332 145.77 128.12 145.833 127.921C145.894 127.599 146.195 127.291 146.791 126.956C148.245 126.118 149.879 125.95 151.614 125.763C152.489 125.687 153.358 125.566 154.22 125.401C154.866 125.3 155.494 125.104 156.082 124.817C156.43 124.647 156.735 124.402 156.976 124.1C157.217 123.797 157.388 123.444 157.476 123.068C157.55 122.739 157.547 122.397 157.465 122.07C157.384 121.743 157.227 121.439 157.007 121.184C155.948 119.95 153.276 119.421 149.055 119.588C148.05 119.638 147.053 119.796 146.081 120.058C144.567 120.426 144.212 120.514 143.328 118.851C143.002 117.997 142.889 117.077 143 116.169C143.034 114.829 143.067 113.488 142.283 112.335C141.842 111.699 141.275 111.162 140.617 110.756C139.959 110.35 139.224 110.084 138.458 109.975C138.006 109.918 137.546 109.963 137.114 110.109C136.681 110.254 136.287 110.494 135.96 110.813C134.848 111.906 134.821 113.562 134.888 115.03L135.29 124.415C135.276 125.357 135.069 126.286 134.68 127.144C134.102 128.35 133.92 129.708 134.158 131.025C134.444 132.081 135.006 133.041 135.786 133.807C137.311 135.571 138.614 137.516 139.664 139.599C141.881 143.621 143.978 147.396 150.288 148.569C151.658 148.817 153.049 148.935 154.441 148.924C156.382 148.899 158.319 148.756 160.242 148.495C161.144 148.415 162.051 148.399 162.955 148.448C164.505 148.592 166.068 148.444 167.563 148.012C168.202 147.804 168.773 147.43 169.219 146.929C169.665 146.427 169.97 145.815 170.102 145.157C170.158 144.357 169.996 143.558 169.633 142.844C169.38 142.359 169.245 141.822 169.238 141.275C169.375 140.66 169.673 140.093 170.102 139.633C170.351 139.318 170.575 138.984 170.772 138.634C172.192 136.086 171.951 133.572 170.189 132.044L171.516 130.207Z" fill="#FA5C57"/>
<path d="M209.181 275.17C209.998 279.192 210.748 283.235 211.432 287.297C211.659 288.638 211.907 290.086 212.771 291.172C213.635 292.258 215.116 292.875 216.496 293.364C222.719 295.577 229.431 298.057 236.015 297.507C243.169 296.924 250.511 296.958 257.698 296.676C258.308 296.676 250.377 283.798 249.754 283.007L217.474 241.725C216.688 240.585 215.7 239.599 214.56 238.816C213.361 238.816 210.949 237.663 209.529 237.475C205.805 236.992 199.481 234.123 200.151 239.566C200.821 244.769 203.273 250.219 204.586 255.32C206.287 261.894 207.81 268.511 209.154 275.17" fill="black"/>
<path d="M164.321 299.056C161.709 299.284 159.076 299.056 156.451 299.015C149.819 298.969 143.188 298.814 136.556 298.694C121.525 298.426 106.413 297.943 91.3745 298.814C105.991 281.666 125.537 271.51 142.183 256.312C147.689 251.285 152.787 245.814 158.474 240.981C161.223 238.559 164.169 236.37 167.282 234.438C168.052 233.989 176.513 231.26 176.446 231.649C173.405 250.156 170.339 268.658 167.249 287.156C166.53 290.99 166.2 294.887 166.264 298.788C165.594 298.908 164.971 298.995 164.321 299.056" fill="black"/>
<path d="M90.0144 276.195C89.3594 275.236 88.6458 274.318 87.8776 273.447C87.0728 272.411 86.0167 271.599 84.8097 271.087C80.6633 269.626 65.8261 279.802 61.3649 282.396C58.3505 284.139 42.877 294.517 42.877 294.517L44.2167 294.584C55.9458 295.181 67.7218 295.502 79.4643 295.167C85.5331 294.993 91.9302 294.892 97.845 293.33C100.973 292.512 103.438 291.433 103.874 287.967C105.006 279.333 97.4029 283.583 93.3704 280.526C91.9905 279.48 91.1331 277.905 90.1752 276.464C90.1216 276.383 90.068 276.303 90.0211 276.222" fill="black"/>
<path d="M240.543 284.026L164.462 185.896L198.416 186.298C195.255 191.93 191.885 197.38 188.449 202.77C186.741 205.451 184.986 208.133 183.244 210.814C181.503 213.496 179.721 216.124 177.926 218.745C170.781 229.265 163.412 239.585 155.821 249.703C148.229 259.821 140.483 269.801 132.583 279.642C128.636 284.558 124.643 289.438 120.607 294.283L114.544 301.516C113.98 302.19 113.277 302.736 112.485 303.116C111.692 303.497 110.828 303.703 109.949 303.722C107.752 303.856 105.093 303.568 100.839 301.825C82.9537 294.518 68.2231 281.122 59.2481 264.002C57.1113 259.933 56.5687 257.298 56.4883 255.113C56.4229 254.235 56.5456 253.353 56.8483 252.526C57.1509 251.7 57.6266 250.947 58.2433 250.32L64.8749 243.616C69.3137 239.147 73.7794 234.704 78.2719 230.289C87.2881 221.466 96.4718 212.796 105.823 204.278C115.174 195.76 124.735 187.429 134.506 179.286C136.944 177.242 139.423 175.264 141.874 173.253C144.326 171.242 146.845 169.231 149.37 167.3C154.401 163.365 159.505 159.49 164.777 155.796L168.441 153.242C173.018 150.055 178.579 148.602 184.129 149.143C189.679 149.685 194.856 152.186 198.731 156.198L285.015 245.453C290.273 251.109 293.103 258.605 292.897 266.328C292.692 274.051 289.467 281.385 283.915 286.754C278.364 292.122 270.93 295.097 263.21 295.038C255.491 294.979 248.103 291.892 242.633 286.44C241.897 285.669 241.187 284.844 240.543 284.026Z" fill="#A6172B"/>
<path d="M153.309 149.494C150.484 149.477 147.667 149.194 144.895 148.65C144.675 148.606 144.466 148.519 144.28 148.394C144.094 148.269 143.934 148.108 143.809 147.922C143.685 147.735 143.598 147.525 143.555 147.305C143.511 147.085 143.512 146.859 143.556 146.638C143.6 146.418 143.686 146.209 143.811 146.023C143.936 145.836 144.096 145.676 144.283 145.552C144.47 145.427 144.679 145.341 144.899 145.297C145.119 145.253 145.345 145.254 145.565 145.298C151.493 146.444 162.311 147.309 167.898 140.464C168.04 140.291 168.214 140.147 168.411 140.041C168.608 139.935 168.824 139.869 169.047 139.847C169.27 139.824 169.495 139.846 169.709 139.91C169.923 139.975 170.123 140.081 170.296 140.223C170.469 140.365 170.613 140.539 170.719 140.736C170.825 140.934 170.891 141.15 170.913 141.373C170.936 141.596 170.914 141.821 170.85 142.035C170.785 142.25 170.679 142.449 170.537 142.623C166.123 148.019 159.324 149.494 153.309 149.494ZM152.197 140.565C150.462 140.565 148.734 140.498 147.032 140.437C146.581 140.418 146.157 140.221 145.85 139.89C145.544 139.558 145.381 139.119 145.398 138.668C145.402 138.443 145.451 138.221 145.543 138.015C145.635 137.81 145.768 137.625 145.933 137.472C146.098 137.319 146.293 137.202 146.505 137.126C146.717 137.05 146.942 137.018 147.166 137.032C151.185 137.186 155.318 137.347 159.223 136.576C163.397 135.751 166.846 133.861 168.943 131.247C169.083 131.07 169.256 130.924 169.453 130.815C169.649 130.705 169.865 130.636 170.089 130.611C170.312 130.585 170.538 130.604 170.754 130.666C170.97 130.728 171.172 130.832 171.348 130.972C171.524 131.112 171.67 131.285 171.779 131.482C171.888 131.678 171.958 131.895 171.983 132.118C172.009 132.342 171.99 132.568 171.928 132.784C171.866 133 171.762 133.202 171.622 133.378C168.273 137.528 163.417 139.224 159.907 139.915C157.364 140.378 154.781 140.589 152.197 140.545V140.565Z" fill="black"/>
<path d="M317.845 199.102C317.561 199.103 317.282 199.034 317.033 198.899C316.783 198.764 316.572 198.569 316.418 198.331C308.185 185.694 299.424 163.9 296.811 149.748C296.729 149.304 296.828 148.845 297.084 148.473C297.34 148.101 297.734 147.846 298.178 147.764C298.622 147.682 299.08 147.78 299.452 148.037C299.824 148.293 300.079 148.687 300.16 149.132C302.672 162.915 311.246 184.159 319.271 196.494C319.516 196.874 319.601 197.335 319.507 197.778C319.413 198.22 319.147 198.607 318.769 198.854C318.491 199.025 318.17 199.111 317.845 199.102V199.102ZM290.856 198.793C283.76 198.796 276.699 197.782 269.89 195.783C267.21 194.992 264.216 193.826 262.676 191.131C262.56 190.937 262.484 190.721 262.453 190.497C262.421 190.273 262.435 190.045 262.492 189.827C262.55 189.608 262.65 189.403 262.788 189.224C262.926 189.044 263.097 188.894 263.294 188.782C263.49 188.67 263.706 188.598 263.931 188.57C264.155 188.543 264.382 188.56 264.6 188.622C264.817 188.683 265.02 188.787 265.197 188.928C265.374 189.069 265.521 189.243 265.63 189.442C266.574 191.077 268.798 191.915 270.848 192.512C278.332 194.709 286.126 195.657 293.917 195.321C294.369 195.301 294.809 195.462 295.142 195.767C295.475 196.073 295.673 196.498 295.693 196.95C295.712 197.401 295.552 197.842 295.246 198.175C294.941 198.509 294.516 198.707 294.065 198.726C292.993 198.8 291.928 198.82 290.856 198.82V198.793ZM232.164 189.294C231.906 189.292 231.652 189.232 231.42 189.12C221.895 184.461 221.654 171.744 224.601 161.386C226.405 155.072 228.675 148.901 231.393 142.924C231.486 142.72 231.618 142.537 231.782 142.384C231.946 142.231 232.138 142.112 232.347 142.034C232.557 141.955 232.78 141.919 233.004 141.927C233.227 141.935 233.447 141.986 233.651 142.079C233.855 142.172 234.038 142.304 234.191 142.468C234.343 142.632 234.462 142.824 234.54 143.034C234.619 143.244 234.655 143.467 234.647 143.691C234.639 143.915 234.588 144.135 234.495 144.339C231.844 150.16 229.631 156.172 227.877 162.325C226.993 165.442 223.054 181.236 232.914 186.056C233.263 186.224 233.544 186.505 233.712 186.854C233.879 187.203 233.923 187.599 233.836 187.976C233.748 188.353 233.535 188.689 233.231 188.929C232.927 189.169 232.551 189.297 232.164 189.294V189.294Z" fill="#00E88F"/>
<path d="M292.772 257.599C292.49 257.6 292.213 257.53 291.966 257.396C291.718 257.263 291.507 257.07 291.352 256.835C280.085 239.754 267.733 222.438 253.84 211.504C253.664 211.366 253.517 211.195 253.407 210.999C253.298 210.804 253.227 210.59 253.201 210.367C253.174 210.145 253.191 209.92 253.251 209.704C253.312 209.489 253.414 209.287 253.552 209.111C253.69 208.935 253.861 208.788 254.056 208.678C254.251 208.568 254.466 208.498 254.688 208.471C254.91 208.444 255.135 208.462 255.351 208.522C255.566 208.582 255.767 208.685 255.943 208.823C270.231 220.058 282.778 237.649 294.205 254.958C294.328 255.145 294.414 255.354 294.456 255.573C294.499 255.793 294.497 256.019 294.453 256.238C294.408 256.457 294.32 256.665 294.195 256.851C294.07 257.036 293.909 257.195 293.723 257.318C293.442 257.506 293.11 257.604 292.772 257.599V257.599Z" fill="black"/>
<path d="M320.531 128.41C319.655 127.19 318.678 126.047 317.61 124.991C316.345 123.648 314.986 122.396 313.544 121.244C306.116 115.325 297.696 113.742 288.418 113.199C284.908 113.005 281.351 113.454 277.881 113.126C270.531 112.506 263.13 112.892 255.883 114.272C247.175 115.928 236.25 117.101 229.578 123.47C225.432 127.438 223.55 132.466 220.448 137.085C220.972 136.991 221.505 136.962 222.036 136.998L251.958 135.416L295.833 133.09L313.129 132.171L318.89 131.869C319.935 131.809 321.442 132.017 322.413 131.662C322.286 130.77 321.241 129.583 320.765 128.786C320.685 128.658 320.611 128.531 320.531 128.41" fill="#A6172B"/>
<path d="M284.238 133.706C286.093 130.408 287.741 126.998 289.175 123.496C294.628 110.149 295.833 95.3406 299.812 81.4235C301.862 74.2236 306.846 65.0663 303.483 57.6586C300.851 51.8665 293.596 49.1917 287.36 50.4118C281.123 51.6319 275.899 55.9826 271.953 60.9904C266.933 67.4256 263.649 75.043 262.414 83.1129C261.524 88.9251 264.049 97.8612 265.998 103.278C267.579 107.622 273.025 110.116 266.789 111.993C263.392 113.032 261.919 112.556 259.501 115.559C257.632 117.872 256.46 120.795 255.314 123.517C254.008 126.634 252.728 129.765 251.516 132.902C251.215 133.673 250.886 134.544 250.558 135.476L284.238 133.706Z" fill="#FC9163"/>
<path d="M326.566 58.4965C327.707 59.9929 328.751 61.5603 329.694 63.1891C334.256 71.046 336.245 80.686 333.66 89.3942C328.729 106.026 309.183 111.369 294.011 109.841C287.848 109.217 283.514 108.641 284.405 101.796C285.269 96.0355 287.202 90.4875 290.106 85.439C292.283 81.4972 300.113 70.8716 296.362 66.2527C296.018 65.889 295.579 65.629 295.095 65.5023C294.611 65.3755 294.101 65.387 293.623 65.5354C292.661 65.8309 291.756 66.284 290.943 66.8762C286.885 69.5037 282.359 71.3245 277.613 72.2392C275.261 72.6922 272.866 72.8789 270.472 72.7956C267.297 72.6817 266.715 72.4471 264.826 75.4235C261.711 80.3307 261.476 86.8602 262.816 92.3975C263.747 96.2589 269.454 98.0086 269.367 102.038C269.28 106.067 263.546 108.802 260.317 109.626C249.426 112.415 237.924 106.61 230.141 98.4846C226.925 95.1327 224.065 91.211 223.067 86.6725C219.972 72.6884 233.115 61.0171 242.821 53.4351C255.582 43.4331 270.332 34.2757 287.031 33.8131C293.013 33.6455 303.302 33.9204 306.263 40.1817C307.428 42.6554 307.542 45.6922 309.418 47.6765C311.474 49.8419 314.817 49.9357 317.61 50.9815C321.04 52.2619 324.128 55.2652 326.586 58.4764" fill="black"/>
<path d="M271.538 95.8634C268.811 95.8634 265.898 94.4825 264.926 91.7406C264.774 91.3148 264.798 90.846 264.991 90.4374C265.185 90.0288 265.532 89.7139 265.958 89.5619C266.383 89.4099 266.852 89.4332 267.26 89.6268C267.668 89.8204 267.983 90.1684 268.135 90.5943C268.644 92.0423 270.707 92.6858 272.315 92.3842C274.284 92.0155 276.079 90.6546 277.901 89.1797C278.073 89.028 278.274 88.9125 278.492 88.8403C278.709 88.7682 278.939 88.7408 279.168 88.7598C279.396 88.7788 279.619 88.8438 279.821 88.9509C280.024 89.058 280.203 89.2051 280.348 89.3832C280.492 89.5613 280.599 89.7668 280.662 89.9873C280.726 90.2079 280.744 90.439 280.715 90.6667C280.687 90.8944 280.613 91.114 280.498 91.3124C280.383 91.5107 280.229 91.6838 280.045 91.821C277.875 93.5909 275.698 95.2132 272.944 95.7361C272.481 95.8225 272.01 95.8652 271.538 95.8634Z" fill="black"/>
<path d="M152.259 78.3805C151.885 78.3825 151.521 78.2609 151.222 78.0347C150.924 77.8084 150.709 77.4901 150.61 77.129C150.51 76.7679 150.533 76.3841 150.674 76.0371C150.815 75.6901 151.066 75.3993 151.388 75.2096C175.554 60.8728 198.982 45.3248 221.582 28.625C221.761 28.478 221.968 28.369 222.19 28.3047C222.412 28.2403 222.645 28.2221 222.875 28.2509C223.104 28.2798 223.325 28.3552 223.525 28.4725C223.724 28.5898 223.898 28.7466 224.034 28.9333C224.171 29.12 224.269 29.3326 224.321 29.5582C224.372 29.7838 224.378 30.0177 224.336 30.2454C224.295 30.4732 224.208 30.6901 224.08 30.8829C223.951 31.0757 223.786 31.2404 223.592 31.3668C200.899 48.1316 177.378 63.7421 153.117 78.1391C152.857 78.2932 152.561 78.3764 152.259 78.3805V78.3805ZM261.572 13.099C261.189 13.099 260.817 12.9697 260.517 12.732C260.216 12.4942 260.005 12.1619 259.917 11.7889C259.828 11.4159 259.868 11.0239 260.03 10.6765C260.192 10.3291 260.466 10.0465 260.809 9.87446L274.206 3.17067C274.406 3.0599 274.627 2.99086 274.855 2.96769C275.084 2.94452 275.314 2.9677 275.533 3.03584C275.752 3.10398 275.954 3.21568 276.129 3.36422C276.304 3.51276 276.447 3.69509 276.549 3.90026C276.652 4.10542 276.712 4.3292 276.726 4.55816C276.74 4.78713 276.707 5.01655 276.63 5.23266C276.553 5.44876 276.434 5.6471 276.278 5.81577C276.123 5.98444 275.935 6.11996 275.726 6.2142L262.329 12.918C262.095 13.0392 261.836 13.1013 261.572 13.099V13.099Z" fill="#FED500"/>
</svg>
